v 637 583.75 -145.0650024
vn 0.04579736665 -0.05352567509 -0.997515738
v 633.125 571.25 -95.06549835
vn 0.4900001585 -0.8716753721 0.009049103595
v 631.25 576.25 -145.0650024
vn 0.6348236799 -0.7597318292 -0.140735507
v 643.75 577.6790161 -95.06549835
vn 0.01832221821 -0.5245414376 0.8511877656
v 642.5 590 -145.0650024
vn 0.9119233489 -0.2830099463 -0.2971551716
v 650.75 583.75 -95.06549835
vn 0.6979004741 -0.6141524315 0.3684449196
v 606.875 570 -95.06549835
vn 0.07972937822 -0.9966172576 0.019932542
v 594.375 568 -145.0650024
vn -0.09990121424 -0.9586096406 -0.2666221261
v 606.875 567.5 -145.0650024
vn -0.03514817357 -0.8787043095 -0.4760707319
v 620 706.5910034 -95.06549835
vn 0.1464343369 0.4379794598 0.8869785666
v 620 692.8410034 -145.0650024
vn 0.2791082561 0.5548502803 -0.7837345004
v 612.5 696.25 -145.0650024
vn 0.1882547736 0.6061996222 -0.7727109194
v 606.25 699.0280151 -145.0650024
vn 0.02261570282 0.5540847182 -0.8321530223
v 606.875 708.75 -95.06549835
vn 0.05029304698 0.4347940683 0.8991244435
v 554.125 651.875 -145.0650024
vn -0.6651883721 -0.02150581963 -0.7463658452
v 556.1359863 638.75 -145.0650024
vn -0.6895595789 -0.09213367105 -0.7183446288
v 552.6140137 638.75 -95.06549835
vn -0.9125471115 -0.08426689357 0.4001960158
v 552.25 651.875 -95.06549835
vn -0.9113240242 -0.006064474583 0.4116452038
v 555.2269897 665 -145.0650024
vn -0.650903523 -0.01239816379 -0.7590592504
v 566.875 694.375 -145.0650024
vn -0.2251285166 0.4082245529 -0.8846862912
v 558.125 689.375 -145.0650024
vn -0.3445501029 0.3377889395 -0.8758903146
v 563.125 695.625 -95.06549835
vn -0.2760537863 0.473824352 0.8362324834
v 569.375 699.2189941 -95.06549835
vn -0.2320035845 0.6570806503 0.71723032
v 573.125 697.5 -145.0650024
vn -0.1529882848 0.6483735442 -0.7457924485
v 555.625 613.125 -95.06549835
vn -0.9401677847 -0.1476899087 0.3070378006
v 558.125 625.625 -145.0650024
vn -0.6787703633 -0.084372513 -0.7294875383
v 559.125 613.125 -145.0650024
vn -0.6847373247 -0.08835320175 -0.7234144807
v 559.8859863 600 -145.0650024
vn -0.1599983126 0.04622173309 -0.9860345125
v 558.8640137 600 -95.06549835
vn -0.955330193 -0.1270827502 0.2668223977
v 553.875 625.625 -95.06549835
vn -0.9324814677 -0.120320186 0.3405897617
v 554.375 678.125 -145.0650024
vn -0.7054789066 0.09086571634 -0.7028818727
v 554.7919922 690.625 -95.06549835
vn -0.5255712867 0.3062024117 0.7937347889
v 560.625 590.625 -145.0650024
vn -0.6187200546 -0.3432466686 -0.7066591978
v 561.25 592.5 -95.06549835
vn 0.400763303 -0.3148340285 0.8603884578
v 565.8930054 584.8209839 -145.0650024
vn -0.6832329035 -0.5897420049 -0.4305777252
v 564.4439697 586.25 -95.06549835
vn -0.8084785342 -0.575813055 0.1216626838
v 571.875 579.0620117 -145.0650024
vn -0.6299127936 -0.6530212164 -0.4204440117
v 570.1790161 576.9639893 -95.06549835
vn -0.7027977705 -0.7099553943 0.04515142739
v 581.25 573.75 -145.0650024
vn -0.4376167953 -0.7758768797 -0.4544300139
v 581.25 569.0910034 -95.06549835
vn -0.3774390817 -0.9258846045 -0.0166579783
v 581.25 697.8410034 -145.0650024
vn -0.08647523075 0.6051045656 -0.7914357185
v 581.25 703.5230103 -95.06549835
vn -0.1588169485 0.6672367454 0.7277171612
v 594.375 698.75 -145.0650024
vn -0.06885427237 0.5083401203 -0.8583993316
v 594.375 707.5 -95.06549835
vn -0.07319568098 0.4986077547 0.8637318611
v 633.125 700.875 -95.06549835
vn 0.2399172485 0.478017807 0.8449489474
v 629.375 686.875 -145.0650024
vn 0.3345169127 0.4842226207 -0.8084719181
v 640.625 697.5 -95.06549835
vn 0.3504611552 0.4486123621 0.8221459389
v 635.7139893 680.1790161 -145.0650024
vn 0.5386968851 0.5450866818 -0.6424065828
v 654.375 685.625 -95.06549835
vn 0.5494944453 0.5083802938 0.6630274057
v 640.9379883 674.375 -145.0650024
vn 0.6317458749 0.4724580646 -0.614557147
v 647.5 691.3889771 -95.06549835
vn 0.4731698334 0.5217323303 0.7098631859
v 647.1589966 600 -145.0650024
vn 0.8703763485 -0.3959192336 -0.2927336991
v 656.25 590 -95.06549835
vn 0.8317098618 -0.4982968569 0.2448650599
v 658.375 678.125 -95.06549835
vn 0.6394866109 0.2694581449 0.7200341225
v 645.2269897 665 -145.0650024
vn 0.7001537681 0.2881980538 -0.6532431245
v 662.7269897 665 -95.06549835
vn 0.7298497558 0.2357317358 0.6416773796
v 651.25 651.875 -145.0650024
vn 0.8301135302 0.2025228292 -0.5195151567
v 652 613.125 -145.0650024
vn 0.866027534 -0.2893401086 -0.4077727199
v 661.8179932 600 -95.06549835
vn 0.8764046431 -0.3374064565 0.3436157107
v 666.25 647.5 -95.06549835
vn 0.881328702 0.1387685239 0.4516668916
v 652.5 642.5 -145.0650024
vn 0.8964573145 0.1221611649 -0.4259588122
v 664.4639893 653.75 -95.06549835
vn 0.8282497525 0.164000228 0.5358230472
v 664.6430054 611.25 -95.06549835
vn 0.2155700475 -0.1145606861 0.9697450399
v 652.5 620 -145.0650024
vn -0.9725708961 0.1222625077 0.1978830546
v 666.25 617.5 -95.06549835
vn -8.732588872e-16 -1.153923158e-17 1
v 653.75 626.25 -145.0650024
vn 0.8399800658 0.03475779667 -0.541502893
v 666.25 625.625 -95.06549835
vn 0.5194329023 0.03995637596 0.8535765409
v 666.25 638.75 -95.06549835
vn 0.7677558064 0.03338068724 0.6398724318
v 653.75 635.625 -145.0650024
vn 0.9001113772 0.03830261156 -0.4339728951
v 594.375 567.5 -95.06549835
vn 0.001668257406 -0.04702888802 0.9988921285
v 550.125 678.125 -95.06549835
vn -0.6678594947 0.09231427312 0.7385402918
v 551.25 665 -95.06549835
vn -0.9298502803 -0.07030234486 0.3611593246
v 620 569.5449829 -145.0650024
vn 0.3381975293 -0.9181933403 -0.2062605619
v 620 568.9769897 -95.06549835
vn 0.1704522967 -0.9842395186 0.04710221291
# mm_gid 0
g mmGroup0
f 1//1 2//2 3//3 
f 4//4 5//5 1//1 
f 6//6 1//1 5//5 
f 7//7 8//8 9//9 
f 10//10 11//11 12//12 
f 12//12 13//13 14//14 
f 15//15 16//16 17//17 
f 15//15 18//18 19//19 
f 20//20 21//21 22//22 
f 23//23 24//24 20//20 
f 25//25 26//26 27//27 
f 27//27 28//28 29//29 
f 30//30 16//16 26//26 
f 31//31 32//32 21//21 
f 29//29 28//28 33//33 
f 34//34 33//33 28//28 
f 33//33 35//35 36//36 
f 35//35 37//37 36//36 
f 38//38 35//35 37//37 
f 37//37 39//39 38//38 
f 40//40 39//39 8//8 
f 23//23 41//41 24//24 
f 42//42 41//41 24//24 
f 42//42 43//43 41//41 
f 44//44 13//13 43//43 
f 45//45 46//46 11//11 
f 47//47 48//48 46//46 
f 49//49 50//50 48//48 
f 51//51 50//50 48//48 
f 5//5 52//52 53//53 
f 54//54 55//55 50//50 
f 56//56 57//57 55//55 
f 52//52 58//58 59//59 
f 60//60 61//61 57//57 
f 62//62 61//61 57//57 
f 63//63 64//64 58//58 
f 65//65 64//64 58//58 
f 58//58 66//66 65//65 
f 67//67 66//66 64//64 
f 65//65 66//66 64//64 
f 68//68 69//69 61//61 
f 66//66 69//69 67//67 
f 70//70 40//40 8//8 
f 8//8 7//7 70//70 
f 14//14 10//10 12//12 
f 13//13 44//44 14//14 
f 20//20 22//22 23//23 
f 23//23 42//42 24//24 
f 23//23 42//42 41//41 
f 31//31 71//71 32//32 
f 32//32 22//22 21//21 
f 55//55 54//54 56//56 
f 56//56 62//62 57//57 
f 48//48 51//51 49//49 
f 50//50 51//51 49//49 
f 49//49 54//54 50//50 
f 27//27 29//29 25//25 
f 25//25 30//30 26//26 
f 19//19 18//18 72//72 
f 15//15 17//17 18//18 
f 29//29 34//34 28//28 
f 29//29 33//33 34//34 
f 40//40 38//38 39//39 
f 57//57 62//62 60//60 
f 61//61 62//62 60//60 
f 60//60 68//68 61//61 
f 1//1 4//4 2//2 
f 4//4 1//1 6//6 
f 4//4 6//6 5//5 
f 10//10 45//45 11//11 
f 16//16 30//30 17//17 
f 33//33 36//36 34//34 
f 36//36 35//35 38//38 
f 37//37 38//38 36//36 
f 42//42 44//44 43//43 
f 48//48 47//47 51//51 
f 45//45 47//47 46//46 
f 63//63 59//59 58//58 
f 58//58 65//65 63//63 
f 63//63 65//65 64//64 
f 5//5 53//53 6//6 
f 64//64 65//65 67//67 
f 66//66 67//67 65//65 
f 69//69 68//68 67//67 
f 52//52 59//59 53//53 
f 73//73 9//9 1//1 
f 1//1 3//3 73//73 
f 9//9 8//8 1//1 
f 12//12 11//11 1//1 
f 1//1 13//13 12//12 
f 1//1 16//16 15//15 
f 15//15 19//19 1//1 
f 1//1 21//21 20//20 
f 20//20 24//24 1//1 
f 27//27 26//26 1//1 
f 1//1 28//28 27//27 
f 26//26 16//16 1//1 
f 19//19 31//31 1//1 
f 31//31 21//21 1//1 
f 1//1 33//33 28//28 
f 1//1 35//35 33//33 
f 1//1 37//37 35//35 
f 1//1 39//39 37//37 
f 8//8 39//39 1//1 
f 24//24 41//41 1//1 
f 41//41 43//43 1//1 
f 43//43 13//13 1//1 
f 11//11 46//46 1//1 
f 46//46 48//48 1//1 
f 48//48 50//50 1//1 
f 1//1 52//52 5//5 
f 50//50 55//55 1//1 
f 55//55 57//57 1//1 
f 1//1 58//58 52//52 
f 57//57 61//61 1//1 
f 1//1 64//64 58//58 
f 1//1 66//66 58//58 
f 1//1 66//66 64//64 
f 61//61 69//69 1//1 
f 1//1 69//69 66//66 
f 70//70 10//10 14//14 
f 14//14 44//44 70//70 
f 23//23 22//22 70//70 
f 70//70 42//42 23//23 
f 70//70 32//32 71//71 
f 71//71 72//72 70//70 
f 70//70 22//22 32//32 
f 56//56 54//54 70//70 
f 70//70 62//62 56//56 
f 49//49 51//51 70//70 
f 70//70 54//54 49//49 
f 25//25 29//29 70//70 
f 70//70 30//30 25//25 
f 70//70 72//72 18//18 
f 18//18 17//17 70//70 
f 29//29 34//34 70//70 
f 70//70 38//38 40//40 
f 60//60 62//62 70//70 
f 70//70 68//68 60//60 
f 70//70 2//2 4//4 
f 4//4 6//6 70//70 
f 70//70 45//45 10//10 
f 17//17 30//30 70//70 
f 34//34 36//36 70//70 
f 36//36 38//38 70//70 
f 70//70 44//44 42//42 
f 51//51 47//47 70//70 
f 74//74 2//2 70//70 
f 70//70 47//47 45//45 
f 70//70 59//59 63//63 
f 63//63 65//65 70//70 
f 6//6 53//53 70//70 
f 70//70 65//65 67//67 
f 67//67 68//68 70//70 
f 53//53 59//59 70//70 
# mm_gid 1
g mmGroup1
f 72//72 71//71 31//31 
f 72//72 31//31 19//19 
# mm_gid 2
g mmGroup2
f 74//74 73//73 2//2 
f 3//3 2//2 73//73 
# mm_gid 4
g mmGroup4
f 74//74 7//7 73//73 
f 9//9 73//73 7//7 
