v 655 682.5 -95.06549835
vn 0.03982838243 0.03078626469 0.9987321496
v 599.375 567.5 -145.0650024
vn -0.01913542859 -0.08904822171 -0.9958434701
v 551.375 604.375 -95.06549835
vn -0.5875200033 -0.07834146172 0.8054085374
v 542.125 643.125 -95.06549835
vn -0.651088655 -0.04680426791 0.7575572133
v 552.9169922 594.375 -95.06549835
vn -0.5474318862 -0.2059407681 0.81111449
v 581.875 573.125 -145.0650024
vn -0.5205343366 -0.8524948359 -0.04792200029
v 541.25 656.25 -95.06549835
vn -0.4473344982 -0.0127810156 0.8942754269
v 586.875 568.75 -95.06549835
vn -0.23138237 -0.4749640822 0.8490414023
v 627.5 575.3569946 -145.0650024
vn 0.4423520267 -0.8090487123 -0.3869946003
v 560.625 693.875 -95.06549835
vn -0.4668711126 0.7872952819 0.4027375281
v 541.375 669.375 -95.06549835
vn -0.6476963162 0.09953658283 0.7553687692
v 546.125 681.875 -95.06549835
vn -0.6584019661 0.2329730242 0.7157027125
v 612.5 568.2949829 -145.0650024
vn 0.05958930776 -0.9809334278 -0.1849829853
v 556.9320068 630 -145.0650024
vn -0.8303583264 -0.1615639478 -0.5332936645
v 665 643.125 -95.06549835
vn 0.9834920168 0.03746636212 -0.1770303249
v 638.75 563.4089966 -95.06549835
vn 0.3333368599 -0.5690461993 0.7517133951
v 544.7730103 630 -95.06549835
vn -0.528333962 -0.1153279692 0.84116745
v 548.25 616.875 -95.06549835
vn -0.5728512406 -0.1244747788 0.8101527691
v 553.125 689.375 -95.06549835
vn -0.3992980719 0.4824849665 0.7795956135
v 638.75 697.5 -95.06549835
vn 0.5576115251 0.7805969715 -0.2823787928
v 559.8610229 588.0560303 -95.06549835
vn -0.2298801243 -0.2749475837 0.933573246
v 565.625 583.75 -95.06549835
vn -0.4097341895 -0.4549616575 0.7906502485
v 573.8540039 577.7080078 -95.06549835
vn -0.2524226606 -0.3804664314 0.8896786571
v 641.0230103 591.25 -145.0650024
vn 0.7709809542 -0.4025849104 -0.4934711754
v 625.625 705.25 -95.06549835
vn 0.4034757316 0.8997479081 -0.1663162112
v 663.75 656.25 -95.06549835
vn 0.9598291516 0.1764847189 -0.2181310803
v 660.1389771 592.5 -95.06549835
vn 0.9485557079 -0.2893185318 -0.1285956204
v 573.75 699.6589966 -95.06549835
vn -0.238822341 0.8728878498 0.4254770577
v 586.875 703.25 -95.06549835
vn -0.2046586275 0.9557088614 0.2115074098
v 599.375 562.375 -95.06549835
vn -0.1121237502 -0.4965482056 0.8607369661
v 664.25 616.875 -95.06549835
vn 0.9925904274 -0.10566286 -0.05999628454
v 599.375 706.25 -95.06549835
vn -0.1638016403 0.9755833149 0.1463088393
v 653 578.125 -95.06549835
vn 0.7975838184 -0.5220636725 0.3021748364
v 612.5 559.2050171 -95.06549835
vn -0.004977995064 -0.6388427019 0.7693212628
v 599.375 696.625 -145.0650024
vn -0.04149394482 0.6274281144 -0.7775681615
v 645 662.5 -145.0650024
vn 0.5106969476 0.2290398329 -0.8286913633
v 612.5 707.5 -95.06549835
vn 0.1703199595 0.9833949804 -0.06265298277
v 556.625 681.875 -145.0650024
vn -0.5992624164 0.3787254095 -0.7053025365
v 625.625 559.125 -95.06549835
vn 0.1519005448 -0.7383882999 0.6570456028
v 573.75 577.6140137 -145.0650024
vn -0.5568527579 -0.8280248046 -0.0654976666
v 665 630 -95.06549835
vn 0.9905108213 -3.790832759e-17 -0.1374347359
v 647.5 570 -95.06549835
vn 0.4807110131 -0.4654885828 0.7431266904
v 648.125 690.625 -95.06549835
vn 0.6187359691 0.7127696872 -0.3303409219
v 658.75 676.25 -95.06549835
vn 0.8495159149 0.40882954 -0.333438307
v 657.5 585.625 -95.06549835
vn 0.9047598839 -0.4148307145 0.09656622261
v 661.25 669.375 -95.06549835
vn 0.9169994593 0.2857626379 -0.2783014476
v 662.625 604.375 -95.06549835
vn 0.9669440985 -0.2247323096 -0.1204759553
v 553.75 645 -145.0650024
vn -0.6471985579 0.01397912204 -0.7621933222
v 558.75 604.375 -145.0650024
vn -0.8222866654 -0.0972456634 -0.5607030392
v 555.4169922 638.75 -145.0650024
vn -0.861040473 -0.1784846485 -0.4761854112
v 561.4580078 590.9379883 -145.0650024
vn -0.7789263129 -0.4938212037 -0.386541605
v 555.7949829 656.25 -145.0650024
vn -0.7763226032 0.03642000258 -0.6292827129
v 556.875 669.375 -145.0650024
vn -0.7415188551 0.1085295156 -0.6620960236
v 558.75 616.875 -145.0650024
vn -0.8189882636 -0.1061837003 -0.5639000535
v 620.625 689.375 -145.0650024
vn 0.2026282102 0.4822895527 -0.8522549868
v 588.125 569.8439941 -145.0650024
vn -0.3055850863 -0.9507091641 -0.0526291132
v 563.125 690.2080078 -145.0650024
vn -0.2134979516 0.3021115959 -0.9290571809
v 566.25 583.125 -145.0650024
vn -0.7085519433 -0.6536724567 -0.2658316493
v 573.75 693.9769897 -145.0650024
vn -0.1422639936 0.4790421426 -0.8661867976
v 634.375 678.125 -145.0650024
vn 0.4537846148 0.4644521177 -0.7605022788
v 586.875 695.375 -145.0650024
vn -0.1050717086 0.6386035681 -0.7623289824
v 612.5 694.0910034 -145.0650024
vn 0.1746045351 0.5219957232 -0.834885478
v 621.25 571.25 -145.0650024
vn 0.2500545681 -0.9279209971 -0.2764693797
v 627.3610229 684.5830078 -145.0650024
vn 0.3193989098 0.4517813921 -0.8329933286
v 634.25 581.25 -145.0650024
vn 0.656452477 -0.5956305265 -0.4629194438
v 641.625 669.375 -145.0650024
vn 0.4232076705 0.2781079113 -0.8622941971
v 645 600 -145.0650024
vn 0.8370270729 -0.2858941257 -0.4665299356
v 646.7860107 606.25 -145.0650024
vn 0.8115308881 -0.2323768586 -0.5361143947
v 648.375 655.625 -145.0650024
vn 0.6069646478 0.1727514714 -0.7757260203
v 650.75 616.875 -145.0650024
vn 0.7693261504 -0.155753836 -0.619578898
v 651.75 643.125 -145.0650024
vn 0.7864320874 0.07410610467 -0.6132151484
v 652.5 630 -145.0650024
vn 0.8334066272 -0.01269952953 -0.5525143743
# mm_gid 0
g mmGroup0
f 2//2 13//13 30//30 
f 2//2 8//8 56//56 
f 23//23 40//40 6//6 
f 6//6 56//56 8//8 
f 39//39 63//63 9//9 
f 16//16 9//9 65//65 
f 13//13 63//63 34//34 
f 17//17 50//50 14//14 
f 14//14 54//54 18//18 
f 33//33 65//65 24//24 
f 24//24 67//67 27//27 
f 35//35 61//61 29//29 
f 37//37 62//62 35//35 
f 36//36 66//66 44//44 
f 46//46 69//69 36//36 
f 38//38 53//53 12//12 
f 38//38 10//10 57//57 
f 22//22 58//58 40//40 
f 48//48 50//50 4//4 
f 48//48 4//4 52//52 
f 49//49 51//51 5//5 
f 3//3 54//54 49//49 
f 22//22 51//51 58//58 
f 11//11 53//53 52//52 
f 55//55 62//62 37//37 
f 55//55 25//25 64//64 
f 10//10 59//59 57//57 
f 28//28 61//61 59//59 
f 60//60 64//64 20//20 
f 1//1 66//66 60//60 
f 67//67 68//68 47//47 
f 68//68 70//70 47//47 
f 26//26 71//71 69//69 
f 70//70 72//72 31//31 
f 41//41 72//72 71//71 
f 60//60 43//43 1//1 
f 1//1 44//44 66//66 
f 49//49 5//5 3//3 
f 3//3 18//18 54//54 
f 52//52 4//4 7//7 
f 50//50 17//17 4//4 
f 51//51 21//21 5//5 
f 7//7 11//11 52//52 
f 8//8 23//23 6//6 
f 8//8 2//2 30//30 
f 10//10 38//38 19//19 
f 10//10 28//28 59//59 
f 11//11 12//12 53//53 
f 12//12 19//19 38//38 
f 71//71 26//26 15//15 
f 15//15 41//41 71//71 
f 16//16 39//39 9//9 
f 16//16 65//65 42//42 
f 14//14 18//18 17//17 
f 20//20 64//64 25//25 
f 20//20 43//43 60//60 
f 21//21 51//51 22//22 
f 40//40 23//23 22//22 
f 55//55 37//37 25//25 
f 69//69 46//46 26//26 
f 27//27 45//45 24//24 
f 67//67 47//47 27//27 
f 28//28 29//29 61//61 
f 29//29 32//32 35//35 
f 13//13 34//34 30//30 
f 72//72 41//41 31//31 
f 31//31 47//47 70//70 
f 32//32 37//37 35//35 
f 33//33 42//42 65//65 
f 24//24 45//45 33//33 
f 63//63 39//39 34//34 
f 44//44 46//46 36//36 
f 6//6 40//40 2//2 
f 2//2 56//56 6//6 
f 9//9 63//63 2//2 
f 2//2 65//65 9//9 
f 2//2 63//63 13//13 
f 14//14 50//50 2//2 
f 2//2 54//54 14//14 
f 24//24 65//65 2//2 
f 2//2 67//67 24//24 
f 2//2 61//61 35//35 
f 35//35 62//62 2//2 
f 2//2 66//66 36//36 
f 36//36 69//69 2//2 
f 2//2 53//53 38//38 
f 38//38 57//57 2//2 
f 40//40 58//58 2//2 
f 2//2 50//50 48//48 
f 48//48 52//52 2//2 
f 2//2 51//51 49//49 
f 49//49 54//54 2//2 
f 2//2 58//58 51//51 
f 52//52 53//53 2//2 
f 2//2 62//62 55//55 
f 55//55 64//64 2//2 
f 57//57 59//59 2//2 
f 59//59 61//61 2//2 
f 2//2 64//64 60//60 
f 60//60 66//66 2//2 
f 2//2 68//68 67//67 
f 2//2 70//70 68//68 
f 69//69 71//71 2//2 
f 2//2 72//72 70//70 
f 71//71 72//72 2//2 
f 3//3 5//5 1//1 
f 1//1 18//18 3//3 
f 1//1 7//7 4//4 
f 4//4 17//17 1//1 
f 5//5 21//21 1//1 
f 1//1 11//11 7//7 
f 1//1 23//23 8//8 
f 8//8 30//30 1//1 
f 10//10 19//19 1//1 
f 1//1 28//28 10//10 
f 1//1 12//12 11//11 
f 1//1 19//19 12//12 
f 15//15 26//26 1//1 
f 1//1 41//41 15//15 
f 1//1 39//39 16//16 
f 16//16 42//42 1//1 
f 17//17 18//18 1//1 
f 20//20 25//25 1//1 
f 1//1 43//43 20//20 
f 21//21 22//22 1//1 
f 22//22 23//23 1//1 
f 25//25 37//37 1//1 
f 26//26 46//46 1//1 
f 1//1 45//45 27//27 
f 27//27 47//47 1//1 
f 1//1 29//29 28//28 
f 1//1 32//32 29//29 
f 30//30 34//34 1//1 
f 31//31 41//41 1//1 
f 1//1 47//47 31//31 
f 1//1 37//37 32//32 
f 1//1 42//42 33//33 
f 33//33 45//45 1//1 
f 34//34 39//39 1//1 
f 1//1 46//46 44//44 
