v 644.375 684.125 -95.06549835
vn 0.04878411815 0.05009158701 0.9975524545
v 591.875 697.375 -95.06549835
vn -0.1782405078 0.9236098528 0.3393746912
v 553 644.375 -145.0650024
vn -0.1035222709 -0.009438520297 -0.994582355
v 555.3410034 657.5 -145.0650024
vn -0.9106581211 0.38153705 -0.158528477
v 563.75 591.9229736 -145.0650024
vn -0.7961471081 -0.2249382585 -0.5617406964
v 555.9089966 631.25 -145.0650024
vn -0.9685662389 -0.1872933805 -0.1637088656
v 637.5 690 -95.06549835
vn 0.5792851448 0.7865038514 -0.2141036689
v 558.375 618.125 -145.0650024
vn -0.6368259788 -0.6021861434 0.4814816117
v 557.5 670.625 -145.0650024
vn -0.7293072343 -0.6547361612 -0.1985737681
v 630.1140137 693.2949829 -95.06549835
vn 0.4746494889 0.8634317517 -0.1708610505
v 630.625 560.75 -95.06549835
vn 0.1183099672 -0.751244545 0.649333775
v 565.1140137 687.2730103 -145.0650024
vn -0.4292813838 0.8191389441 -0.3804324865
v 558.75 610 -145.0650024
vn -0.9768246412 -0.1628041118 -0.1389546841
v 558.5 680 -145.0650024
vn -0.7014846802 0.6963914037 -0.1515198201
v 560 603.75 -145.0650024
vn -0.9457299113 -0.2523331344 -0.2047508657
v 650 625 -145.0650024
vn 0.607884109 -0.09947194904 -0.7877703905
v 571.25 585 -145.0650024
vn -0.4406407475 -0.7675558925 -0.4655037224
v 578.2290039 580 -145.0650024
vn -0.3564557731 -0.7231180668 -0.5916413665
v 546.7050171 657.5 -95.06549835
vn -0.5006147623 0.1170196757 0.8577244878
v 574.375 688.75 -145.0650024
vn -0.3260975778 0.8702356815 -0.369256258
v 581.25 691.875 -145.0650024
vn -0.3871500194 0.8458743095 -0.3668943346
v 591.875 575 -145.0650024
vn -0.1916425675 -0.8211123943 -0.5376314521
v 554.625 593.25 -95.06549835
vn -0.5351725817 -0.2346864343 0.8114879131
v 591.875 694.875 -145.0650024
vn 0.2017657608 0.0294771716 -0.9789901376
v 573.125 688.75 -95.06549835
vn -0.3595588803 0.8934267759 0.2692693472
v 604.375 574.375 -145.0650024
vn -0.0225858707 -0.8267720342 -0.5620834827
v 647.5 657.5 -145.0650024
vn 0.5150677562 0.2432743907 -0.8219019175
v 621.25 687.25 -145.0650024
vn 0.3612236381 0.6015093327 -0.7125335336
v 604.375 695.75 -145.0650024
vn 0.004568450153 0.7687007785 -0.6395922899
v 580 692.2219849 -95.06549835
vn -0.3750842512 0.5306070447 0.7601104975
v 617.5 578.0679932 -145.0650024
vn 0.1202302054 -0.7449045181 -0.6562483907
v 614.375 691.6669922 -145.0650024
vn 0.206853494 0.6817854643 -0.7016980648
v 626.875 583.125 -145.0650024
vn 0.2741258144 -0.6133509874 -0.7407128811
v 592.5 570.8330078 -95.06549835
vn -0.1878419518 -0.6818652153 0.7069478631
v 604.375 700.375 -95.06549835
vn 0.04659067094 0.9850416183 0.1658986658
v 550.5 670.625 -95.06549835
vn -0.709675312 0.1385282129 0.6907755733
v 629.375 681.5620117 -145.0650024
vn 0.345153302 0.5034105182 -0.7921155691
v 651.5 631.875 -145.0650024
vn 0.5936953425 -0.08966013044 -0.7996792793
v 633.75 592.5 -145.0650024
vn 0.5142766237 -0.2902694941 -0.8070088029
v 651.875 641.875 -145.0650024
vn 0.7043628693 0.05593470111 -0.7076328397
v 635.625 675.625 -145.0650024
vn 0.5350306034 0.533193171 -0.6553223133
v 655.375 670.625 -95.06549835
vn 0.8496878147 0.477950722 -0.2226965427
v 640.9089966 605.3410034 -145.0650024
vn 0.4697045088 -0.2057850063 -0.858504653
v 578.75 577.6140137 -95.06549835
vn -0.2418165505 -0.4410364628 0.8642983437
v 640.5560303 669.8610229 -145.0650024
vn 0.5472735763 0.407005161 -0.7313264608
v 647 618.125 -145.0650024
vn 0.3496966958 -0.1584453583 -0.9233673811
v 650 648.125 -145.0650024
vn 0.6557565331 0.1482276171 -0.7402783036
v 643.125 567 -95.06549835
vn 0.5949807763 -0.6488472819 0.4743365049
v 617.5 699.7730103 -95.06549835
vn 0.3319212198 0.9415738583 -0.05715703219
v 547.3859863 631.25 -95.06549835
vn -0.6291188002 -0.1004033089 0.7707974911
v 546.25 644.375 -95.06549835
vn -1.728298571e-08 -0.06601784378 0.99781847
v 549.625 618.125 -95.06549835
vn -0.578155756 -0.08544118702 0.8114405274
v 651.25 677.5 -95.06549835
vn 0.7286673188 0.641895175 -0.238777101
v 551.5 605.625 -95.06549835
vn -0.1956583261 -0.07453650236 0.9778354168
v 556.25 679.75 -95.06549835
vn 0.1425694078 0.3081339002 0.9405995011
v 561.25 586.6669922 -95.06549835
vn -0.3002943993 -0.3140577674 0.9006614089
v 565.625 685.25 -95.06549835
vn -0.5039734244 0.7274522781 0.4656436443
v 567.5 582.8569946 -95.06549835
vn 0.03374005109 -0.07531294227 0.9965889454
v 586.25 573.75 -95.06549835
vn -0.2498227656 -0.5809473395 0.7746539712
v 604.375 566.75 -95.06549835
vn -0.1436791122 -0.812695384 0.5646968484
v 617.5 562.6140137 -95.06549835
vn -0.03730311617 -0.8608411551 0.507504642
v 650 574.375 -95.06549835
vn 0.7430652976 -0.6352630854 0.2104632854
v 652.1879883 580.625 -95.06549835
vn 0.1558638215 0.1895294487 0.9694251418
v 656.0230103 592.5 -95.06549835
vn 0.9280197024 -0.361020714 0.09188815206
v 659.75 605.625 -95.06549835
vn 0.9472611547 -0.303792268 0.1020123661
v 661.8060303 658.75 -95.06549835
vn 0.9144583344 0.353590548 -0.1968238801
v 662.25 618.125 -95.06549835
vn 0.9333747625 -0.2649579644 0.242092669
v 662.5 625 -95.06549835
vn 0.9626948833 -0.0700141117 0.2613744736
v 663.75 631.875 -95.06549835
vn 0.9941361547 -0.1008544639 -0.03900942579
v 663.75 644.375 -95.06549835
vn 0.9982810616 0.05546010286 -0.01894903742
v 663.75 651.875 -95.06549835
vn 0.9837777615 0.1335829794 -0.1197369248
# mm_gid 0
g mmGroup0
f 3//3 19//19 4//4 
f 3//3 6//6 50//50 
f 36//36 9//9 4//4 
f 23//23 15//15 5//5 
f 5//5 17//17 56//56 
f 6//6 8//8 52//52 
f 8//8 13//13 52//52 
f 36//36 14//14 9//9 
f 12//12 14//14 57//57 
f 25//25 20//20 12//12 
f 13//13 15//15 54//54 
f 68//68 16//16 38//38 
f 16//16 67//67 46//46 
f 17//17 18//18 44//44 
f 18//18 22//22 59//59 
f 30//30 21//21 20//20 
f 21//21 2//2 24//24 
f 22//22 26//26 60//60 
f 2//2 29//29 24//24 
f 26//26 31//31 61//61 
f 27//27 45//45 42//42 
f 66//66 47//47 27//27 
f 28//28 32//32 49//49 
f 10//10 37//37 28//28 
f 35//35 32//32 29//29 
f 31//31 33//33 11//11 
f 33//33 39//39 62//62 
f 7//7 41//41 37//37 
f 38//38 40//40 69//69 
f 39//39 43//43 64//64 
f 71//71 40//40 47//47 
f 53//53 45//45 41//41 
f 43//43 46//46 65//65 
f 41//41 7//7 1//1 
f 1//1 53//53 41//41 
f 2//2 21//21 30//30 
f 2//2 35//35 29//29 
f 37//37 10//10 7//7 
f 28//28 49//49 10//10 
f 33//33 48//48 11//11 
f 11//11 61//61 31//31 
f 19//19 36//36 4//4 
f 19//19 3//3 51//51 
f 23//23 54//54 15//15 
f 5//5 56//56 23//23 
f 25//25 30//30 20//20 
f 12//12 57//57 25//25 
f 34//34 59//59 22//22 
f 22//22 60//60 34//34 
f 35//35 49//49 32//32 
f 36//36 55//55 14//14 
f 45//45 53//53 42//42 
f 42//42 66//66 27//27 
f 44//44 58//58 17//17 
f 18//18 59//59 44//44 
f 48//48 33//33 62//62 
f 50//50 51//51 3//3 
f 6//6 52//52 50//50 
f 13//13 54//54 52//52 
f 55//55 57//57 14//14 
f 17//17 58//58 56//56 
f 26//26 61//61 60//60 
f 62//62 39//39 63//63 
f 39//39 64//64 63//63 
f 43//43 65//65 64//64 
f 46//46 67//67 65//65 
f 66//66 71//71 47//47 
f 67//67 16//16 68//68 
f 68//68 38//38 69//69 
f 40//40 70//70 69//69 
f 70//70 40//40 71//71 
f 4//4 9//9 3//3 
f 5//5 15//15 3//3 
f 3//3 17//17 5//5 
f 3//3 8//8 6//6 
f 3//3 13//13 8//8 
f 9//9 14//14 3//3 
f 3//3 14//14 12//12 
f 12//12 20//20 3//3 
f 3//3 15//15 13//13 
f 3//3 38//38 16//16 
f 16//16 46//46 3//3 
f 3//3 18//18 17//17 
f 3//3 22//22 18//18 
f 20//20 21//21 3//3 
f 21//21 24//24 3//3 
f 3//3 26//26 22//22 
f 24//24 29//29 3//3 
f 3//3 31//31 26//26 
f 3//3 45//45 27//27 
f 27//27 47//47 3//3 
f 3//3 32//32 28//28 
f 28//28 37//37 3//3 
f 29//29 32//32 3//3 
f 3//3 33//33 31//31 
f 3//3 39//39 33//33 
f 37//37 41//41 3//3 
f 3//3 40//40 38//38 
f 3//3 43//43 39//39 
f 3//3 47//47 40//40 
f 41//41 45//45 3//3 
f 3//3 46//46 43//43 
f 2//2 30//30 1//1 
f 1//1 35//35 2//2 
f 7//7 10//10 1//1 
f 10//10 49//49 1//1 
f 11//11 48//48 1//1 
f 1//1 61//61 11//11 
f 1//1 36//36 19//19 
f 19//19 51//51 1//1 
f 1//1 54//54 23//23 
f 23//23 56//56 1//1 
f 1//1 30//30 25//25 
f 25//25 57//57 1//1 
f 1//1 59//59 34//34 
f 34//34 60//60 1//1 
f 1//1 49//49 35//35 
f 1//1 55//55 36//36 
f 42//42 53//53 1//1 
f 1//1 66//66 42//42 
f 1//1 58//58 44//44 
f 44//44 59//59 1//1 
f 48//48 62//62 1//1 
f 1//1 51//51 50//50 
f 50//50 52//52 1//1 
f 52//52 54//54 1//1 
f 1//1 57//57 55//55 
f 56//56 58//58 1//1 
f 60//60 61//61 1//1 
f 62//62 63//63 1//1 
f 63//63 64//64 1//1 
f 64//64 65//65 1//1 
f 65//65 67//67 1//1 
f 1//1 71//71 66//66 
f 67//67 68//68 1//1 
f 68//68 69//69 1//1 
f 69//69 70//70 1//1 
f 70//70 71//71 1//1 
